<?xml version="1.0" encoding="utf-8"?>
<!-- Generated by IcoMoon.io -->
<!DOCTYPE svg PUBLIC "-//W3C//DTD SVG 1.1//EN" "http://www.w3.org/Graphics/SVG/1.1/DTD/svg11.dtd">
<svg version="1.1" xmlns="http://www.w3.org/2000/svg" xmlns:xlink="http://www.w3.org/1999/xlink" width="79" height="16" viewBox="0 0 79 16">
<svg id="icon-cog" width="16" height="16" viewBox="0 0 16 16" x="0" y="0">
<path fill="#000000" d="M9.143 8q0-0.946-0.67-1.616t-1.616-0.67-1.616 0.67-0.67 1.616 0.67 1.616 1.616 0.67 1.616-0.67 0.67-1.616zM13.714 7.027v1.982q0 0.107-0.071 0.205t-0.179 0.116l-1.652 0.25q-0.17 0.482-0.348 0.813 0.313 0.446 0.955 1.232 0.089 0.107 0.089 0.223t-0.080 0.205q-0.241 0.33-0.884 0.964t-0.839 0.634q-0.107 0-0.232-0.080l-1.232-0.964q-0.393 0.205-0.813 0.339-0.143 1.214-0.259 1.661-0.063 0.25-0.321 0.25h-1.982q-0.125 0-0.219-0.076t-0.103-0.192l-0.25-1.643q-0.438-0.143-0.804-0.33l-1.259 0.955q-0.089 0.080-0.223 0.080-0.125 0-0.223-0.098-1.125-1.018-1.473-1.5-0.063-0.089-0.063-0.205 0-0.107 0.071-0.205 0.134-0.188 0.455-0.594t0.482-0.629q-0.241-0.446-0.366-0.884l-1.634-0.241q-0.116-0.018-0.188-0.112t-0.071-0.21v-1.982q0-0.107 0.071-0.205t0.17-0.116l1.661-0.25q0.125-0.411 0.348-0.821-0.357-0.509-0.955-1.232-0.089-0.107-0.089-0.214 0-0.089 0.080-0.205 0.232-0.321 0.879-0.96t0.844-0.638q0.116 0 0.232 0.089l1.232 0.955q0.393-0.205 0.813-0.339 0.143-1.214 0.259-1.661 0.063-0.25 0.321-0.25h1.982q0.125 0 0.219 0.076t0.103 0.192l0.25 1.643q0.438 0.143 0.804 0.33l1.268-0.955q0.080-0.080 0.214-0.080 0.116 0 0.223 0.089 1.152 1.063 1.473 1.518 0.063 0.071 0.063 0.196 0 0.107-0.071 0.205-0.134 0.188-0.455 0.594t-0.482 0.629q0.232 0.446 0.366 0.875l1.634 0.25q0.116 0.018 0.188 0.112t0.071 0.21z"></path>
</svg>
<svg id="icon-text" width="15" height="16" viewBox="0 0 15 16" x="32" y="0">
<path fill="#000000" d="M6.473 4.991l-1.518 4.018q0.295 0 1.219 0.018t1.433 0.018q0.17 0 0.509-0.018-0.777-2.259-1.643-4.036zM0 14.857l0.018-0.705q0.205-0.063 0.5-0.112t0.509-0.094 0.442-0.129 0.397-0.259 0.277-0.451l2.116-5.5 2.5-6.464h1.143q0.071 0.125 0.098 0.188l1.83 4.286q0.295 0.696 0.946 2.299t1.018 2.451q0.134 0.304 0.518 1.29t0.643 1.504q0.179 0.402 0.313 0.509 0.17 0.134 0.786 0.263t0.75 0.183q0.054 0.339 0.054 0.509 0 0.036-0.004 0.116t-0.004 0.116q-0.563 0-1.696-0.071t-1.705-0.071q-0.679 0-1.92 0.063t-1.589 0.071q0-0.384 0.036-0.696l1.17-0.25q0.009 0 0.112-0.022t0.138-0.031 0.129-0.040 0.134-0.058 0.098-0.071 0.080-0.098 0.022-0.125q0-0.143-0.277-0.862t-0.643-1.585-0.375-0.893l-4.018-0.018q-0.232 0.518-0.683 1.746t-0.451 1.451q0 0.196 0.125 0.335t0.388 0.219 0.433 0.121 0.509 0.076 0.366 0.036q0.009 0.17 0.009 0.518 0 0.080-0.018 0.241-0.518 0-1.558-0.089t-1.558-0.089q-0.071 0-0.237 0.036t-0.192 0.036q-0.714 0.125-1.679 0.125z"></path>
</svg>
<svg id="icon-link" width="15" height="16" viewBox="0 0 15 16" x="64" y="0">
<path fill="#000000" d="M13 10.857q0-0.357-0.25-0.607l-1.857-1.857q-0.25-0.25-0.607-0.25-0.375 0-0.643 0.286 0.027 0.027 0.17 0.165t0.192 0.192 0.134 0.17 0.116 0.228 0.031 0.246q0 0.357-0.25 0.607t-0.607 0.25q-0.134 0-0.246-0.031t-0.228-0.116-0.17-0.134-0.192-0.192-0.165-0.17q-0.295 0.277-0.295 0.652 0 0.357 0.25 0.607l1.839 1.848q0.241 0.241 0.607 0.241 0.357 0 0.607-0.232l1.313-1.304q0.25-0.25 0.25-0.598zM6.723 4.563q0-0.357-0.25-0.607l-1.839-1.848q-0.25-0.25-0.607-0.25-0.348 0-0.607 0.241l-1.313 1.304q-0.25 0.25-0.25 0.598 0 0.357 0.25 0.607l1.857 1.857q0.241 0.241 0.607 0.241 0.375 0 0.643-0.277-0.027-0.027-0.17-0.165t-0.192-0.192-0.134-0.17-0.116-0.228-0.031-0.246q0-0.357 0.25-0.607t0.607-0.25q0.134 0 0.246 0.031t0.228 0.116 0.17 0.134 0.192 0.192 0.165 0.17q0.295-0.277 0.295-0.652zM14.714 10.857q0 1.071-0.759 1.813l-1.313 1.304q-0.741 0.741-1.813 0.741-1.080 0-1.821-0.759l-1.839-1.848q-0.741-0.741-0.741-1.813 0-1.098 0.786-1.866l-0.786-0.786q-0.768 0.786-1.857 0.786-1.071 0-1.821-0.75l-1.857-1.857q-0.75-0.75-0.75-1.821t0.759-1.813l1.313-1.304q0.741-0.741 1.813-0.741 1.080 0 1.821 0.759l1.839 1.848q0.741 0.741 0.741 1.813 0 1.098-0.786 1.866l0.786 0.786q0.768-0.786 1.857-0.786 1.071 0 1.821 0.75l1.857 1.857q0.75 0.75 0.75 1.821z"></path>
</svg>
</svg>
